<?xml version="1.0" standalone="no"?>
<svg version="1.1" id="downloadSvg" xmlns="http://www.w3.org/2000/svg" xmlns:xlink="http://www.w3.org/1999/xlink" x="0px" y="0px" viewBox="0 0 1200 1200" enable-background="new 0 0 1200 1200" xml:space="preserve" height="50" width="50">
<g>
	<path fill="#ED6F2B" d="M976.541,358.272C898.871,50,599.783,50,599.783,50v0.847c-26.587,0.571-300.947,13.63-376.132,306.585&#10;&#9;&#9;c0,0-21.053,111.803,42.287,255.959c0,0,74.76,141.916,88.379,160.251c0,0,95.709,142.152,168.395,302.532l0.124-0.129&#10;&#9;&#9;c0,0,36.606,73.299,72.685,73.299c0,0,35.152,12.358,72.955-70.119c0,0,0,0.015,0,0.047&#10;&#9;&#9;c75.25-161.522,175.573-305.404,175.573-305.404c13.766-18.217,89.113-159.808,89.113-159.808&#10;&#9;&#9;C997.156,470.188,976.541,358.272,976.541,358.272z M608.379,704.476c-151.988,0-275.221-123.229-275.221-275.196&#10;&#9;&#9;c0-152.004,123.234-275.217,275.221-275.217c151.983,0,275.191,123.213,275.191,275.217&#10;&#9;&#9;C883.57,581.247,760.363,704.476,608.379,704.476z" style="fill: rgb(43, 94, 237);"/>
	<path fill="#ED6F2B" d="M803.894,391.752l-179.513-124.69c-6.478-4.506-17.025-4.419-23.38,0.226l-69.565,50v-50.517h-42.67v81.097&#10;&#9;&#9;l-28.743,20.692l-31.955,22.959c-6.403,4.592-5.513,8.398,1.94,8.398h30.015v152.188h111.647l0.507-5.584v-68.233&#10;&#9;&#9;c0,0,0-48.744,40.944-48.744c40.945,0,44.847,44.846,44.847,44.846v77.714h107.243V399.918h36.877&#10;&#9;&#9;C809.581,399.918,810.384,396.209,803.894,391.752z" style="fill: rgb(43, 94, 237);"/>
</g>
</svg>