<?xml version="1.0" encoding="UTF-8"?>
<svg width="16px" height="17px" viewBox="0 0 16 17" version="1.1" xmlns="http://www.w3.org/2000/svg" xmlns:xlink="http://www.w3.org/1999/xlink">
    <!-- Generator: Sketch 50.2 (55047) - http://www.bohemiancoding.com/sketch -->
    <title>Fill 1</title>
    <desc>Created with Sketch.</desc>
    <defs></defs>
    <g id="Support" stroke="none" stroke-width="1" fill="none" fill-rule="evenodd">
        <g id="CE-XXX-Support-1366px" transform="translate(-160.000000, -519.000000)" fill="#2A79FF">
            <path d="M165.213333,519 C163.783111,519 162.499556,519.542222 161.503111,520.568889 C160.520889,521.576889 160,522.866667 160,524.295111 C160,525.034667 160.138667,525.734222 160.414222,526.382222 C160.372444,526.699556 160.352,527.016 160.352,527.326222 C160.352,529.493333 161.110222,531.368 162.602667,532.896889 C164.107556,534.436444 165.952,535.216889 168.081778,535.216889 C168.307556,535.216889 168.568,535.199111 168.878222,535.163556 C169.491556,535.415111 170.130667,535.542222 170.786667,535.542222 C172.197333,535.542222 173.474667,534.996444 174.480889,533.962667 C175.473778,532.946667 176,531.651556 176,530.219556 C176,529.617778 175.901333,529.020444 175.704889,528.438222 C175.757333,528.058667 175.784,527.686222 175.784,527.326222 C175.784,525.16 175.032,523.287111 173.550222,521.759111 C172.052444,520.216889 170.212444,519.434667 168.081778,519.434667 C167.833778,519.434667 167.596444,519.446222 167.369778,519.468444 C166.697778,519.157333 165.976,519 165.213333,519 M168,530.137778 C167.639111,530.137778 167.352,530.083556 167.133333,529.975111 C166.899556,529.848889 166.737778,529.722667 166.647111,529.597333 C166.431111,529.2 166.312889,528.992 166.295111,528.975111 C166.223111,528.759111 166.115556,528.577778 165.971556,528.433778 C165.791111,528.309333 165.610667,528.244444 165.429333,528.244444 C165.176889,528.244444 164.969778,528.325333 164.807111,528.488 C164.644444,528.649778 164.563556,528.84 164.563556,529.056 C164.563556,529.399111 164.691556,529.768 164.944,530.165333 C165.177778,530.525333 165.503111,530.824 165.918222,531.056889 C166.494222,531.364444 167.207111,531.518222 168.055111,531.518222 C168.757333,531.518222 169.379556,531.409778 169.921778,531.193778 C170.463111,530.941333 170.860444,530.625778 171.112,530.247111 C171.382222,529.832 171.517333,529.380444 171.517333,528.894222 C171.517333,528.498667 171.446222,528.136889 171.302222,527.812444 C171.157333,527.542222 170.932444,527.298667 170.624889,527.083556 C170.300444,526.883556 169.958222,526.721778 169.597333,526.596444 C168.984889,526.415111 168.550222,526.297778 168.298667,526.244444 C168.171556,526.225778 168.014222,526.195556 167.824889,526.149333 C167.635556,526.104889 167.513778,526.073778 167.460444,526.055111 C167.244444,525.984 167.090667,525.92 167,525.866667 C166.855111,525.794667 166.738667,525.695111 166.648,525.568 C166.556444,525.479111 166.512889,525.360889 166.512889,525.216 C166.512889,525 166.639111,524.811556 166.891556,524.648 C167.127111,524.467556 167.468444,524.376889 167.919111,524.376889 C168.370667,524.376889 168.704889,524.458667 168.920889,524.619556 C169.154667,524.819556 169.326222,525.044444 169.433778,525.296889 C169.578667,525.531556 169.696,525.693333 169.786667,525.783111 C169.929778,525.892444 170.101333,525.946667 170.299556,525.946667 C170.534222,525.946667 170.742222,525.856 170.920889,525.674667 C171.084444,525.513778 171.165333,525.315556 171.165333,525.08 C171.165333,524.900444 171.101333,524.664889 170.975111,524.376889 C170.831111,524.160889 170.640889,523.944889 170.407111,523.728889 C170.154667,523.529778 169.821333,523.358222 169.405333,523.214222 C168.974222,523.087111 168.512889,523.024889 168.025778,523.024889 C167.376889,523.024889 166.799111,523.122667 166.294222,523.322667 C165.791111,523.500444 165.402667,523.771556 165.132444,524.132444 C164.861333,524.493333 164.726222,524.907556 164.726222,525.376889 C164.726222,525.845333 164.853333,526.251556 165.104889,526.594667 C165.412444,526.954667 165.753778,527.206222 166.132444,527.351111 C166.566222,527.550222 167.088889,527.712889 167.702222,527.838222 C167.809778,527.856889 167.942222,527.888 168.094222,527.932444 C168.247111,527.978667 168.382222,528.014222 168.500444,528.041778 C168.616889,528.066667 168.712889,528.090667 168.784,528.108444 C169.036444,528.2 169.243556,528.324444 169.405333,528.488 C169.568,528.613333 169.648889,528.802667 169.648889,529.056 C169.648889,529.363556 169.504889,529.615111 169.216889,529.814222 C168.893333,530.030222 168.487111,530.137778 168,530.137778 M165.213333,520.777778 C165.880889,520.777778 166.493333,520.957333 167.052444,521.319111 C167.340444,521.248 167.684444,521.211556 168.080889,521.211556 C169.721778,521.211556 171.12,521.807111 172.273778,522.996444 C173.428444,524.186667 174.005333,525.629333 174.005333,527.325333 C174.005333,527.739556 173.96,528.172444 173.870222,528.624 C174.104889,529.147556 174.222222,529.679111 174.222222,530.218667 C174.222222,531.193778 173.884444,532.028444 173.207111,532.720889 C172.530667,533.415111 171.724444,533.763556 170.785778,533.763556 C170.225778,533.763556 169.685333,533.619556 169.162667,533.329778 C168.694222,533.401778 168.333333,533.438222 168.080889,533.438222 C166.439111,533.438222 165.036444,532.842667 163.873778,531.652444 C162.711111,530.462222 162.128889,529.019556 162.128889,527.325333 C162.128889,526.928 162.174222,526.523556 162.264,526.107556 C161.940444,525.566222 161.777778,524.962667 161.777778,524.295111 C161.777778,523.320889 162.112,522.491556 162.778667,521.807111 C163.445333,521.120889 164.257778,520.777778 165.213333,520.777778" id="Fill-1"></path>
        </g>
    </g>
</svg>